<svg width="208" height="88" viewBox="0 0 208 88" fill="none" xmlns="http://www.w3.org/2000/svg">
<g clip-path="url(#clip0_310_77)">
<path d="M207.5 87.5H0.5C0.2 87.5 0 87.3 0 87C0 86.7 0.2 86.5 0.5 86.5H207.5C207.8 86.5 208 86.7 208 87C208 87.3 207.7 87.5 207.5 87.5Z" fill="#053168"/>
<path d="M204.6 87.2C204.3 87.2 204.1 87 204.1 86.7C204 85.4 201.6 81.2 199.5 77.4C197.7 74.1 195.9 71 195.2 69.2C194.3 66.9 192.5 65.2 190.5 63.4C189.2 62.2 187.8 61 186.5 59.4C183.6 55.9 177.6 49 176.3 47.5L165 53.3C164.9 53.3 164.9 53.4 164.8 53.4C164.6 53.4 159.9 53.6 157.8 52.6C156.4 51.9 155.1 50.1 153.5 48C152.3 46.3 150.8 44.4 149.2 42.8C145.5 39.1 137.3 30.4 137.2 30.3L129 23.6C129 23.6 124.3 20.4 122.7 19.9C121.3 19.5 118.4 18.7 117 19.1C116 19.4 105.4 27.5 98.9 32.5L85.9 40.5L70.4 49.5C70 49.7 62.3 53.5 59.5 54.1C58.7 54.2 57.6 54.5 56.5 54.8C53.7 55.5 50.2 56.3 48.1 56.1C45.6 55.9 39.5 55.6 38.5 55.6C37.1 56.3 24.6 63.1 22.3 65.7C21.3 66.8 20.5 67.7 19.6 68.5C18.3 69.8 17.2 70.9 16 72.4C14 74.9 3.90001 86.8 3.80001 86.9C3.60001 87.1 3.30001 87.1 3.10001 87C2.90001 86.8 2.90001 86.5 3.00001 86.3C3.10001 86.2 13.3 74.3 15.2 71.8C16.4 70.3 17.5 69.1 18.8 67.8C19.6 67 20.5 66.1 21.4 65C23.9 62.2 37.4 55 38 54.7C38.1 54.7 38.2 54.6 38.3 54.6C38.4 54.6 45.3 54.9 48.1 55.1C50 55.3 53.4 54.5 56.1 53.8C57.3 53.5 58.3 53.3 59.2 53.1C61.8 52.6 69.7 48.7 69.8 48.6L85.3 39.6L98.3 31.6C100 30.3 115.1 18.6 116.6 18.1C118.1 17.6 120.5 18.2 122.9 18.8C124.7 19.3 129.3 22.5 129.5 22.6L137.8 29.4C137.9 29.5 146.1 38.2 149.8 41.9C151.5 43.6 152.9 45.5 154.2 47.2C155.7 49.2 157 50.9 158.2 51.5C159.9 52.3 163.9 52.2 164.6 52.2L176.2 46.3C176.4 46.2 176.7 46.2 176.8 46.4C176.9 46.5 184.1 54.7 187.3 58.7C188.5 60.2 189.9 61.4 191.2 62.6C193.3 64.5 195.2 66.3 196.2 68.8C196.9 70.5 198.7 73.8 200.4 76.9C202.7 81.1 204.9 85 205.1 86.5C205.1 86.9 204.9 87.2 204.6 87.2Z" fill="#053168"/>
<path d="M128.5 78.1999C128.4 78.1999 128.2 78.0999 128.1 77.9999C127.9 77.7999 128 77.4999 128.2 77.2999L136.9 70.2999C137 70.1999 145 63.2999 150.5 60.0999C155.2 57.3999 159.2 55.2999 162.7 53.3999L164.6 52.3999C164.8 52.2999 165.1 52.3999 165.3 52.5999C165.4 52.7999 165.3 53.0999 165.1 53.2999L163.2 54.2999C159.7 56.1999 155.7 58.2999 151 60.9999C145.6 64.0999 137.7 70.9999 137.6 71.0999L128.9 78.0999C128.8 78.0999 128.7 78.1999 128.5 78.1999Z" fill="#053168"/>
<path d="M28.3 83.2C28.2 83.2 28.1 83.2 28 83.1C27.8 82.9 27.7 82.6 27.9 82.4C28.3 81.8 32.2 76.3 33.7 75.3C34.9 74.5 39.3 69.2 40.9 67.2C40.9 67.2 40.9 67.1 41 67.1C41.1 67 49.8 59.9 52.1 57.6C54.1 55.6 55.7 54.8 57.8 53.8C58.2 53.6 58.7 53.4 59.1 53.1C59.3 53 59.6 53.1 59.8 53.3C59.9 53.5 59.8 53.8 59.6 54C59.1 54.2 58.7 54.5 58.2 54.7C56.1 55.7 54.6 56.5 52.8 58.3C50.5 60.6 42.4 67.2 41.6 67.8C41.1 68.4 35.7 75 34.2 76C33 76.8 29.8 81.2 28.7 82.9C28.6 83.1 28.5 83.2 28.3 83.2Z" fill="#053168"/>
<path d="M117.8 18.6C120 19.6 125 23.4 127 25.2C129 27 131.8 29 133.7 33.2C135.5 37.4 138.9 42.4 138.9 42.4L145.4 51.4L150.7 60.6L157.2 57.1L164.4 53.3C164.4 53.3 159 53.1 158.4 52.5C157.8 52 153.1 47 153.1 47L142.5 35L135.4 27.9L129.2 23L123 19.5L117.8 18.6Z" fill="#053168"/>
<path d="M176.2 47.5C176.2 49 178.2 54.2001 178.2 54.2001C178.2 54.2001 182.4 62.4001 183.3 63.9001C184.2 65.4001 186.5 69.9001 186.5 69.9001L191.2 73.4001C191.2 73.4001 194.1 77 195.7 79.5C197.3 82 199.4 84.8001 199.4 84.8001L201.6 86.8001L204.8 87.2C204.8 87.2 202.8 81.5001 201.3 79.3001C199.8 77.1001 198.6 74.6 197.7 73.2C196.8 71.9 195.5 67.5 194.6 66.5C193.8 65.5 187.9 60.1 187.9 60.1L177.2 47.7001L176.5 46.8L176.2 47.5Z" fill="#053168"/>
<path d="M46.2999 55.8C46.2999 55.8 44.9999 58.5 43.9999 60.3C42.9999 62 41.8999 64 40.4999 65.4C39.0999 66.8 37.2999 69.6 36.3999 70.6C35.5999 71.5 33.3999 75.8 33.3999 75.8C33.3999 75.8 37.0999 72.6 37.7999 71.6C38.4999 70.5 39.9999 68.4 40.8999 67.6C41.7999 66.9 44.9999 64.2 45.5999 63.8C46.1999 63.4 49.8999 60.6 49.8999 60.6L52.5999 57.8L57.0999 54.5C57.0999 54.5 51.8999 55.6 50.6999 55.7C49.4999 55.8 46.2999 55.8 46.2999 55.8Z" fill="#053168"/>
<path d="M51.0999 87.4C50.9999 87.4 50.8999 87.4 50.7999 87.3C50.5999 87.1 50.5999 86.7999 50.7999 86.5999L55.3999 81.3C57.0999 79.4 58.9999 77.2 61.4999 76C62.0999 75.7 62.6999 75.5 63.1999 75.3C64.0999 75 64.8999 74.6999 65.5999 74.1999C66.3999 73.6999 67.1999 72.8999 67.7999 72.1999C70.5999 69.2999 73.2999 66.2 75.8999 63.2L76.4999 62.5999C78.2999 60.4999 80.1999 58.3 82.4999 56.4C85.8999 53.6 89.8999 51.6999 93.8999 49.9C94.9999 49.4 96.1999 48.8999 97.0999 48.0999C98.0999 47.2999 98.8999 46.3999 99.6999 45.2999C103.4 40.5999 106.8 35.6999 109.9 30.5999C110 30.3999 110.3 30.2999 110.6 30.3999C110.8 30.4999 110.9 30.7999 110.8 31.0999C107.7 36.1999 104.3 41.2 100.5 45.9C99.5999 47 98.7999 47.9999 97.6999 48.7999C96.5999 49.5999 95.3999 50.1999 94.2999 50.6999C90.3999 52.4999 86.3999 54.3999 83.0999 57.0999C80.8999 58.8999 79.0999 61.1 77.2999 63.2L76.6999 63.7999C74.0999 66.7999 71.2999 69.9 68.4999 72.8C67.7999 73.5 67.0999 74.3 66.0999 74.9C65.2999 75.4 64.3999 75.7999 63.4999 76.0999C62.8999 76.2999 62.3999 76.5 61.7999 76.8C59.4999 77.9 57.5999 80 55.9999 81.9L51.3999 87.1999C51.2999 87.3999 51.1999 87.4 51.0999 87.4Z" fill="#053168"/>
<path d="M10.6 87.5C10.5 87.5 10.5 87.5 10.4 87.5C10.1 87.4 10 87.1 10.1 86.8L12.9 80.2C13.1 79.7 13.4 79 13.9 78.5C14.3 78.1 14.9 77.9 15.4 77.7L19.5 76.2C20.1 76 20.6 75.8 21 75.4C21.3 75.1 21.6 74.7 21.8 74.3C22.9 72.6 24 70.8 25 69C25.1 68.8 25.4 68.7 25.7 68.8C25.9 68.9 26 69.2 25.9 69.5C24.9 71.3 23.8 73.1 22.7 74.9C22.4 75.3 22.1 75.8 21.7 76.2C21.1 76.7 20.5 76.9 19.8 77.2L15.7 78.7C15.3 78.9 14.8 79 14.5 79.3C14.1 79.6 13.9 80.1 13.7 80.6L10.9 87.2C11 87.4 10.8 87.5 10.6 87.5Z" fill="#053168"/>
<path d="M22.2999 75.5001C22.0999 75.5001 21.9999 75.4001 21.8999 75.3001C21.7999 75.1001 21.7999 74.8001 21.9999 74.6001L26.2999 71.8001C26.4999 71.7001 26.7999 71.7001 26.9999 71.9001C27.0999 72.1001 27.0999 72.4001 26.8999 72.6001L22.5999 75.4001C22.4999 75.5001 22.3999 75.5001 22.2999 75.5001Z" fill="#053168"/>
<path d="M139.5 87.3C139.4 87.3 139.3 87.3 139.2 87.2C139 87 138.9 86.7 139.1 86.5L146 76.4C146.3 75.9 146.7 75.3 147.4 74.9C148 74.6 148.6 74.4 149.1 74.3H149.2C154.9 73.2 159.9 70 165.4 66.3C165.9 65.9 166.5 65.6 166.8 65.1C167 64.9 167.1 64.6 167.2 64.3C167.3 64 167.4 63.8 167.6 63.5C168.3 62.2 169.7 61.5 170.8 61C171 60.9 171.3 61 171.5 61.2C171.6 61.4 171.5 61.7 171.3 61.9C170.3 62.4 169.1 63 168.5 64.1C168.4 64.3 168.3 64.5 168.2 64.8C168.1 65.1 167.9 65.4 167.7 65.8C167.3 66.5 166.6 66.9 166.1 67.3C160.5 71.1 155.4 74.3 149.5 75.5H149.4C148.9 75.6 148.4 75.7 148 75.9C147.6 76.2 147.2 76.6 146.9 77.1L140 87.2C139.8 87.2 139.6 87.3 139.5 87.3Z" fill="#053168"/>
<path d="M149.6 69.7C149.5 69.7 149.4 69.7 149.4 69.6C149.2 69.5 149.1 69.2 149.2 68.9C150 67.4 151.2 66.2 152.6 65.3C152.8 65.1 153.1 65 153.3 64.9C153.8 64.6 154.3 64.3 154.7 63.9C155.6 63.1 156.1 61.9 156.5 60.6C156.7 60.1 156.9 59.6 157.1 59.2C158.2 56.7 160.2 54.6 162.6 53.3C162.8 53.2 163.1 53.3 163.3 53.5C163.4 53.7 163.3 54 163.1 54.2C160.9 55.4 159.1 57.3 158 59.6C157.8 60 157.6 60.5 157.5 61C157 62.3 156.5 63.7 155.4 64.7C154.9 65.2 154.3 65.5 153.8 65.8C153.6 65.9 153.3 66.1 153.1 66.2C151.8 67 150.8 68.2 150 69.5C150 69.6 149.8 69.7 149.6 69.7Z" fill="#053168"/>
<path d="M192.8 81.6C192.2 81.6 191.7 81.1 191.4 80.4C191.4 80.3 191.3 80.2 191.3 80.1C191.2 79.8 191.1 79.5 190.9 79.4C190.8 79.3 190.5 79.2 190.2 79.1C190 79.1 189.9 79 189.7 79C187.9 78.3 187.4 76.2 187.1 74.7C186.5 72.1 185.7 69.5 184.7 67.1C184.6 66.8 184.7 66.6 185 66.4C185.3 66.3 185.5 66.4 185.7 66.7C186.7 69.2 187.5 71.8 188.1 74.5C188.4 76 188.9 77.6 190.1 78C190.2 78 190.3 78.1 190.5 78.1C190.8 78.2 191.2 78.3 191.5 78.6C191.9 78.9 192 79.3 192.1 79.7L192.2 79.9C192.3 80.2 192.5 80.4 192.7 80.4C193 80.4 193.2 80.6 193.2 80.9C193.3 81.4 193.1 81.6 192.8 81.6Z" fill="#053168"/>
<path d="M135.5 49.1C135.3 49.1 135.1 49 135 48.7C134 45.4 133.5 41.9 133.5 38.4C133.5 37.9 133.5 37.4 133.5 36.9C133.5 33.8 133.5 30.6 131.7 28.3C131.5 28.1 131.6 27.8 131.8 27.6C132 27.4 132.3 27.5 132.5 27.7C134.5 30.3 134.5 33.7 134.5 37C134.5 37.5 134.5 38 134.5 38.5C134.5 41.9 135 45.3 136 48.5C136.1 48.8 135.9 49 135.7 49.1C135.6 49.1 135.5 49.1 135.5 49.1Z" fill="#053168"/>
<path d="M139.7 69C139.6 69 139.6 69 139.7 69C139.3 69 139.2 68.7 139.2 68.4C139.5 66.4 139.5 64.2999 139.2 62.2999C139.2 61.9999 139.3 61.8 139.6 61.7C139.9 61.7 140.1 61.7999 140.2 62.0999C140.5 64.1999 140.5 66.4 140.2 68.5C140.1 68.8 139.9 69 139.7 69Z" fill="#053168"/>
<path d="M108.2 87.4001C108.1 87.4001 108 87.4001 108 87.3001C107.8 87.2001 107.7 86.9 107.8 86.6C110.1 82.6 112.7 78 113 73.1C113.1 71.9 113 70.6001 112.9 69.4001C112.8 68.2001 112.8 67.0001 112.8 65.8001C112.9 63.2001 113.6 60.7001 114.3 58.2001C115 55.6001 115.7 53 115.8 50.3C115.8 50 116 49.8 116.3 49.8C116.6 49.8 116.8 50 116.8 50.3C116.8 53.1 116 55.8001 115.3 58.4001C114.6 60.8001 114 63.3 113.8 65.7C113.7 66.9 113.8 68.1 113.9 69.2C114 70.4 114 71.7 114 73C113.7 78.2 111.1 82.8 108.7 87C108.5 87.3 108.3 87.4001 108.2 87.4001Z" fill="#053168"/>
<path d="M113.3 72.1C113.2 72.1 113.2 72.1 113.1 72.1C112.8 72 112.7 71.7 112.8 71.4C115.2 65.8 119 60.9 123.8 57.1C124 56.9 124.3 57 124.5 57.2C124.7 57.4 124.6 57.7 124.4 57.9C119.8 61.6 116.1 66.4 113.7 71.8C113.7 72 113.5 72.1 113.3 72.1Z" fill="#053168"/>
<path d="M52.5001 38.1H27.9001C27.6001 38.1 27.4001 37.9 27.4001 37.6C27.3001 36.4 27.6001 35.5 28.3001 35C29.1001 34.4 30.1001 34.3 30.7001 34.4C31.2001 32.7 33.4001 27 38.8001 27C43.7001 27 45.1001 31.9 45.4001 33.9C46.0001 33.6 47.1001 33.3 48.7001 33.3C51.8001 33.3 53.0001 37.3 53.0001 37.5C53.0001 37.7 53.0001 37.8 52.9001 37.9C52.8001 38 52.6001 38.1 52.5001 38.1ZM28.4001 37.1H51.7001C51.3001 36.1 50.3001 34.2 48.6001 34.2C46.2001 34.2 45.3001 35 45.3001 35.1C45.2001 35.2 45.0001 35.3 44.8001 35.2C44.6001 35.1 44.5001 35 44.5001 34.8C44.5001 34.5 44.0001 28 38.8001 28C33.5001 28 31.6001 35.1 31.6001 35.1C31.5001 35.4 31.3001 35.5 31.0001 35.5C31.0001 35.5 29.7001 35.2 29.0001 35.8C28.6001 36 28.5001 36.5 28.4001 37.1Z" fill="#053168"/>
<path d="M193 41H168.5C168.2 41 168 40.8 168 40.5C167.9 39.3 168.2 38.4 168.9 37.9C169.7 37.3 170.7 37.2 171.3 37.3C171.8 35.6 174 29.9 179.4 29.9C184.3 29.9 185.7 34.8 186 36.8C186.6 36.5 187.7 36.2 189.3 36.2C192.4 36.2 193.6 40.2 193.6 40.4C193.6 40.6 193.6 40.7 193.5 40.8C193.3 40.9 193.2 41 193 41ZM169 40H192.3C191.9 39 190.9 37.1 189.2 37.1C186.8 37.1 185.9 37.9 185.9 38C185.8 38.1 185.6 38.2 185.4 38.1C185.2 38 185.1 37.9 185.1 37.7C185.1 37.4 184.6 30.9 179.4 30.9C174.1 30.9 172.2 38 172.2 38C172.1 38.3 171.9 38.4 171.6 38.4C171.6 38.4 170.3 38.1 169.6 38.7C169.2 38.9 169 39.4 169 40Z" fill="#053168"/>
<path d="M136.1 10.2H113.9C113.7 10.2 113.6 10.1 113.5 10C113.4 9.9 113.4 9.7 113.4 9.6C113.4 9.4 114.5 5.7 117.4 5.7C118.8 5.7 119.7 6 120.3 6.3C120.6 4.4 121.8 0 126.3 0C131.1 0 133.1 5.2 133.6 6.7C134.2 6.7 135.1 6.7 135.8 7.3C136.4 7.8 136.7 8.6 136.6 9.7C136.6 10 136.4 10.2 136.1 10.2ZM114.6 9.2H135.6C135.6 8.7 135.4 8.3 135.1 8.1C134.5 7.6 133.4 7.8 133.3 7.8C133 7.9 132.8 7.7 132.7 7.4C132.7 7.3 131 1 126.2 1C121.5 1 121.1 6.9 121.1 7.1C121.1 7.3 121 7.5 120.8 7.5C120.6 7.6 120.4 7.5 120.3 7.4C120.3 7.4 119.5 6.6 117.4 6.6C115.9 6.7 115 8.3 114.6 9.2Z" fill="#053168"/>
<path d="M71.6999 48.5999C71.4999 48.5999 71.3999 48.5 71.2999 48.4C69.6999 45.8 68.8999 42.7999 68.8999 39.7999C68.8999 30.6999 76.2999 23.2 85.4999 23.2C91.2999 23.2 96.6999 26.2999 99.6999 31.2999C99.7999 31.4999 99.7999 31.8 99.4999 32C99.2999 32.1 98.9999 32.0999 98.7999 31.7999C95.9999 27.0999 90.8999 24.2 85.3999 24.2C76.7999 24.2 69.7999 31.1999 69.7999 39.7999C69.7999 42.6999 70.5999 45.5 72.0999 47.9C72.1999 48.1 72.1999 48.3999 71.8999 48.5999C71.7999 48.5999 71.7999 48.5999 71.6999 48.5999Z" fill="#053168"/>
<path d="M59.5 44.9C59.3 44.9 59 44.7 59 44.5C59 44.2 59.2 44 59.4 43.9L65.3 43.2C65.6 43.2 65.8 43.3999 65.9 43.5999C65.9 43.8999 65.7 44.1 65.5 44.2L59.5 44.9Z" fill="#053168"/>
<path d="M64.8 32.4H64.6999L58.5999 31C58.2999 30.9 58.2 30.7 58.2 30.4C58.3 30.1 58.4999 30 58.7999 30L64.9 31.5C65.2 31.6 65.3 31.8 65.3 32.1C65.3 32.3 65.1 32.4 64.8 32.4Z" fill="#053168"/>
<path d="M71.2 23.6C71.1 23.6 70.9001 23.5 70.8001 23.4L66.2 18.5C66 18.3 66 18 66.2 17.8C66.4 17.6 66.7001 17.6 66.9001 17.8L71.5001 22.7C71.7001 22.9 71.7001 23.2 71.5001 23.4C71.4001 23.6 71.3 23.6 71.2 23.6Z" fill="#053168"/>
<path d="M81.7 20C81.4 20 81.2 19.8 81.2 19.5L80.7 13.4C80.7 13.1 80.9 12.9 81.2 12.9C81.5 12.9 81.7 13.1 81.7 13.4L82.2 19.5C82.2 19.7 82 19.9 81.7 20Z" fill="#053168"/>
<path d="M92 20.2C91.9 20.2 91.8 20.2 91.8 20.1C91.6 20 91.5 19.7 91.6 19.4L94.5 14.3C94.6 14.1 94.9 14 95.2 14.1C95.4 14.2 95.5 14.5 95.4 14.8L92.4 20C92.3 20.1 92.1 20.2 92 20.2Z" fill="#053168"/>
<path d="M99.8001 25.1C99.7001 25.1 99.6001 25.1 99.5001 25C99.3001 24.8 99.3001 24.5 99.5001 24.3L103.2 20.1C103.4 19.9 103.7 19.9 103.9 20.1C104.1 20.3 104.1 20.6 103.9 20.8L100.2 25C100.1 25 99.9001 25.1 99.8001 25.1Z" fill="#053168"/>
</g>
<defs>
<clipPath id="clip0_310_77">
<rect width="208" height="87.5" fill="white"/>
</clipPath>
</defs>
</svg>
